<svg xmlns="http://www.w3.org/2000/svg" xmlns:xlink="http://www.w3.org/1999/xlink" xml:space="preserve" version="1.1" style="shape-rendering:geometricPrecision;text-rendering:geometricPrecision;image-rendering:optimizeQuality;" viewBox="0 0 877 1091.25" x="0px" y="0px" fill-rule="evenodd" clip-rule="evenodd"><defs><style type="text/css">
   
    .fil0 {fill:black}
   
  </style></defs><g><path class="fil0" d="M0 83l197 0 0 57c0,38 31,70 70,70 38,0 69,-32 69,-70l0 -57 205 0 0 48c0,38 31,69 69,69 39,0 70,-31 70,-69l0 -48 197 0 0 790 -877 0 0 -790zm546 480l-84 -33 57 -47 -64 -24 -116 21 -145 -58c-57,-23 -175,22 -101,51l220 83 119 150 95 37 -68 -131 52 20c33,12 73,19 102,6l124 -62 28 30 42 16 -43 -58 23 -8 -48 -18 -193 25zm-279 -553l0 0c24,0 43,19 43,43l0 87c0,24 -19,44 -43,44l0 0c-24,0 -44,-20 -44,-44l0 -87c0,-24 20,-43 44,-43zm343 -10l0 0c-24,0 -43,20 -43,44l0 87c0,24 19,43 43,43l0 0c24,0 44,-19 44,-43l0 -87c0,-24 -20,-44 -44,-44zm-563 305l783 0 0 521 -783 0 0 -521z"/></g><text x="0" y="888" fill="#000000" font-size="5px" font-weight="bold" font-family="'Helvetica Neue', Helvetica, Arial-Unicode, Arial, Sans-serif">Created by Claudia Revalina</text><text x="0" y="893" fill="#000000" font-size="5px" font-weight="bold" font-family="'Helvetica Neue', Helvetica, Arial-Unicode, Arial, Sans-serif">from the Noun Project</text></svg>