<svg width="160" height="160" viewBox="0 0 160 160" fill="none" xmlns="http://www.w3.org/2000/svg">
<circle cx="80" cy="80" r="78.5" stroke="white" stroke-width="3"/>
<path d="M133.83 137.391V124.306C133.83 117.366 131.073 110.709 126.165 105.802C121.257 100.894 114.601 98.1367 107.66 98.1367H55.3209C48.3803 98.1367 41.7239 100.894 36.8161 105.802C31.9083 110.709 29.1511 117.366 29.1511 124.306V137.391" stroke="white" stroke-width="2" stroke-linecap="round" stroke-linejoin="round"/>
<path d="M81.4907 71.9669C95.9439 71.9669 107.66 60.2503 107.66 45.7971C107.66 31.3439 95.9439 19.6273 81.4907 19.6273C67.0375 19.6273 55.3209 31.3439 55.3209 45.7971C55.3209 60.2503 67.0375 71.9669 81.4907 71.9669Z" stroke="white" stroke-width="2" stroke-linecap="round" stroke-linejoin="round"/>
</svg>
