<?xml version="1.0" standalone="no"?>
<!DOCTYPE svg PUBLIC "-//W3C//DTD SVG 20010904//EN"
 "http://www.w3.org/TR/2001/REC-SVG-20010904/DTD/svg10.dtd">
<svg version="1.0" xmlns="http://www.w3.org/2000/svg"
 width="512.000000pt" height="512.000000pt" viewBox="0 0 512.000000 512.000000"
 preserveAspectRatio="xMidYMid meet">

<g transform="translate(0.000000,512.000000) scale(0.100000,-0.100000)"
fill="#000000" stroke="none">
<path d="M2060 4835 c-159 -32 -312 -111 -432 -224 -134 -125 -218 -265 -267
-440 l-26 -96 0 -1350 c0 -1440 -1 -1402 50 -1580 71 -243 238 -481 450 -640
80 -61 251 -147 353 -179 412 -129 865 -34 1180 248 237 212 376 482 411 799
7 62 11 446 11 1079 l0 984 -22 44 c-13 25 -38 55 -57 67 -65 43 -168 23 -214
-41 l-22 -31 -5 -1055 c-6 -1050 -6 -1055 -28 -1139 -77 -292 -283 -526 -554
-631 -238 -93 -528 -77 -746 41 -231 124 -390 324 -461 578 l-26 96 0 1330 c0
1084 2 1340 14 1385 50 207 222 381 427 434 34 9 99 16 144 16 255 0 474 -159
558 -405 l27 -80 3 -1204 c3 -1323 5 -1262 -57 -1348 -17 -23 -52 -54 -78 -70
-42 -25 -58 -28 -133 -28 -75 0 -91 3 -133 28 -26 16 -61 47 -78 69 -61 86
-59 39 -59 1211 0 966 -2 1072 -16 1103 -24 50 -68 77 -133 82 -70 5 -115 -22
-149 -88 l-22 -45 3 -1100 c2 -999 4 -1105 20 -1155 31 -101 79 -182 152 -255
117 -117 254 -175 415 -175 255 0 474 159 558 405 l27 80 0 1255 0 1255 -23
89 c-89 351 -365 615 -710 682 -90 17 -264 17 -352 -1z"/>
</g>
</svg>
