<svg xmlns="http://www.w3.org/2000/svg" version="1.1" viewBox="-5.0 -10.0 110.0 135.0">
 <path d="m87.188 13.562h-10.91v-6.7031c0-2.3086-1.9102-4.2109-4.2109-4.2109h-5.1016c-2.3086 0-4.2109 1.8984-4.2109 4.2109v6.6016h-25.414v-6.6016c0-2.3086-1.9102-4.2109-4.2109-4.2109h-5.1016c-2.3086 0-4.2109 1.8984-4.2109 4.2109v6.6016h-10.91c-5.8086 0-10.41 4.7109-10.41 10.41v63.07c0 5.8008 4.6992 10.41 10.41 10.41h74.18c5.8008 0 10.41-4.7109 10.41-10.41l0.003906-63.07c0.097656-5.6016-4.6133-10.309-10.312-10.309zm0 77.977h-74.277c-2.5 0-4.5-2-4.5-4.5v-49.148h83.18v49.148h0.10156c-0.003906 2.5-2.0039 4.5-4.5039 4.5z"/>
 <path d="m20.219 60.812h11.012c1.5 0 2.7031-1.2031 2.7031-2.7031v-8.3086c0-1.5-1.2031-2.7031-2.7031-2.7031h-11.012c-1.5 0-2.7031 1.2031-2.7031 2.7031v8.3086c-0.10156 1.3984 1.1992 2.7031 2.7031 2.7031z"/>
 <path d="m44.645 60.812h11.012c1.5 0 2.7031-1.2031 2.7031-2.7031v-8.3086c0-1.5-1.2031-2.7031-2.7031-2.7031h-11.012c-1.5 0-2.7031 1.2031-2.7031 2.7031v8.3086c0 1.3984 1.1992 2.7031 2.7031 2.7031z"/>
 <path d="m69.168 60.812h11.012c1.5 0 2.7031-1.2031 2.7031-2.7031v-8.3086c0-1.5-1.2031-2.7031-2.7031-2.7031h-11.012c-1.5 0-2.7031 1.2031-2.7031 2.7031v8.3086c0 1.3984 1.2031 2.7031 2.7031 2.7031z"/>
 <path d="m20.219 82.832h11.012c1.5 0 2.7031-1.2031 2.7031-2.7031v-8.3086c0-1.5-1.2031-2.7031-2.7031-2.7031l-11.012 0.003906c-1.5 0-2.7031 1.2031-2.7031 2.7031v8.3086c-0.10156 1.3984 1.1992 2.6992 2.7031 2.6992z"/>
 <path d="m44.645 82.832h11.012c1.5 0 2.7031-1.2031 2.7031-2.7031v-8.3086c0-1.5-1.2031-2.7031-2.7031-2.7031l-11.012 0.003906c-1.5 0-2.7031 1.2031-2.7031 2.7031v8.3086c0 1.3984 1.1992 2.6992 2.7031 2.6992z"/>
<text x="0.0" y="117.5" font-size="5.0" font-weight="bold" font-family="Arbeit Regular, Helvetica, Arial-Unicode, Arial, Sans-serif" fill="#000000">Created by xoaokotoe</text><text x="0.0" y="122.5" font-size="5.0" font-weight="bold" font-family="Arbeit Regular, Helvetica, Arial-Unicode, Arial, Sans-serif" fill="#000000">from Noun Project</text></svg>