<svg width="85" height="83" viewBox="0 0 85 83" fill="none" xmlns="http://www.w3.org/2000/svg">
<g clip-path="url(#clip0_2_7)">
<path fill-rule="evenodd" clip-rule="evenodd" d="M61.3453 40.0805C68.037 42.3267 72.1896 47.1447 72.1896 53.9667C72.1896 63.6779 63.7169 69.381 47.7855 69.381H15.7463V83H64.5281C69.9584 82.9978 75.1655 80.9532 79.0044 77.3157C82.8434 73.6783 85 68.7457 85 63.6027V40.0805H61.3453ZM32.3566 46.5351V57.933H46.463C52.2202 57.933 55.2795 56.0876 55.2795 52.2299C55.2795 48.3805 52.229 46.5351 46.463 46.5351H32.3566Z" fill="#344273"/>
<path fill-rule="evenodd" clip-rule="evenodd" d="M0 0V40.0805H15.7463V13.2182H46.0839C60.6047 13.2182 68.2222 18.437 69.2008 26.1609V19.3973C69.2008 14.2542 67.0442 9.32174 63.2053 5.68428C59.3663 2.04683 54.1592 0.00221396 48.7289 0L0 0ZM32.3566 24.6996V35.5547H43.8798C49.4783 35.5547 52.3613 33.701 52.3613 30.0938C52.3613 26.5617 49.4783 24.7163 43.8798 24.7163H32.3566V24.6996Z" fill="#DCE5FE"/>
</g>
<defs>
<clipPath id="clip0_2_7">
<rect width="85" height="83" fill="white"/>
</clipPath>
</defs>
</svg>
