<svg xmlns="http://www.w3.org/2000/svg" xmlns:xlink="http://www.w3.org/1999/xlink" xml:space="preserve" version="1.1" style="shape-rendering:geometricPrecision;text-rendering:geometricPrecision;image-rendering:optimizeQuality;" viewBox="0 0 881 1080" x="0px" y="0px" fill-rule="evenodd" clip-rule="evenodd"><defs><style type="text/css">
   
    .fil0 {fill:black}
   
  </style></defs><g><path class="fil0" d="M351 8l0 0c21,0 38,17 38,38l0 76c0,21 -17,38 -38,38l0 0c-21,0 -38,-17 -38,-38l0 -76c0,-21 17,-38 38,-38zm21 522c37,55 32,131 -17,180l-96 95 15 15 -44 44 -104 -104 -8 8c4,12 1,27 -9,37 -13,13 -36,13 -50,0 -13,-14 -13,-37 0,-50 10,-10 25,-13 37,-9l8 -8 -104 -104 44 -44 15 14 95 -95c49,-49 125,-54 180,-17l13 -14c26,-25 64,13 39,39l-14 13zm-253 -458l171 0 0 50c0,33 28,60 61,60 33,0 60,-27 60,-60l0 -50 178 0 0 41c0,34 27,61 60,61 34,0 61,-27 61,-61l0 -41 171 0 0 687 -539 0 31 -31c3,-4 6,-7 9,-10l458 0 0 -453 -680 0 0 206c-8,6 -16,13 -24,20l-17 17 0 -436zm570 344l76 0 0 -76 -76 0 0 76zm-227 0l76 0 0 -76 -76 0 0 76zm189 0l-75 0 0 -76 75 0 0 76zm38 151l76 0 0 76 -76 0 0 -76zm0 -113l76 0 0 76 -76 0 0 -76zm-227 113l76 0 0 76 -76 0 0 -76zm0 -113l76 0 0 76 -76 0 0 -76zm189 113l-75 0 0 76 75 0 0 -76zm0 -113l-75 0 0 76 75 0 0 -76zm-2 -454l0 0c-20,0 -37,17 -37,38l0 75c0,21 17,38 37,38l0 0c21,0 38,-17 38,-38l0 -75c0,-21 -17,-38 -38,-38z"/></g><text x="0" y="879" fill="#000000" font-size="5px" font-weight="bold" font-family="'Helvetica Neue', Helvetica, Arial-Unicode, Arial, Sans-serif">Created by Claudia Revalina</text><text x="0" y="884" fill="#000000" font-size="5px" font-weight="bold" font-family="'Helvetica Neue', Helvetica, Arial-Unicode, Arial, Sans-serif">from the Noun Project</text></svg>